<!-- <?xml version="1.0" standalone="no"?><!DOCTYPE svg PUBLIC "-//W3C//DTD SVG 1.1//EN" "http://www.w3.org/Graphics/SVG/1.1/DTD/svg11.dtd"> -->
<svg t="1548055965810" class="icon" style="" version="1.1" 
    xmlns="http://www.w3.org/2000/svg" p-id="1529" 
    xmlns:xlink="http://www.w3.org/1999/xlink" width="64" height="64">
    <defs>
        <symbol viewBox="0 0 1024 1024" id="fifter">
            <path d="M441.1 960.1c-2.8 0-5.7-0.6-8.3-1.8-7.1-3.3-11.7-10.4-11.7-18.2V404.8L124.8 97.9c-5.6-5.8-7.2-14.4-4-21.8 3.1-7.4 10.4-12.2 18.5-12.2h745.5c8.1 0 15.3 4.8 18.5 12.2 3.1 7.4 1.6 16-4 21.8L603 404.8v412.4c0 5.8-2.5 11.4-6.9 15.2L454.2 955.2c-3.7 3.3-8.4 4.9-13.1 4.9zM186.5 104l269 278.8c3.6 3.7 5.6 8.7 5.6 13.9v499.4L562.8 808V396.7c0-5.2 2-10.2 5.6-13.9l269-278.8H186.5z" fill="#3E3A39" p-id="4396"></path>
        </symbol>
        <symbol viewBox="0 0 1024 1024" id="dropDown">
            <path d="M511.84 891.08224 0 208.62976l1023.68 0L511.84 891.08224z" p-id="1850"></path>
        </symbol>
    </defs>
</svg>